<?xml version="1.0" encoding="UTF-8" standalone="no"?>
<svg
   xmlns:dc="http://purl.org/dc/elements/1.1/"
   xmlns:cc="http://creativecommons.org/ns#"
   xmlns:rdf="http://www.w3.org/1999/02/22-rdf-syntax-ns#"
   xmlns:svg="http://www.w3.org/2000/svg"
   xmlns="http://www.w3.org/2000/svg"
   xmlns:sodipodi="http://sodipodi.sourceforge.net/DTD/sodipodi-0.dtd"
   xmlns:inkscape="http://www.inkscape.org/namespaces/inkscape"
   sodipodi:docname="JetRack.svg"
   inkscape:version="1.0 (4035a4fb49, 2020-05-01)"
   inkscape:export-ydpi="96"
   inkscape:export-xdpi="96"
   inkscape:export-filename="C:\Users\edufe\OneDrive\Escritorio\JetRack6.png"
   id="svg8"
   version="1.1"
   viewBox="0 0 297 84"
   height="84mm"
   width="297mm">
  <defs
     id="defs2">
    <inkscape:perspective
       id="perspective855"
       inkscape:persp3d-origin="109.2095 : -116.47219 : 1"
       inkscape:vp_z="214.2095 : -66.972241 : 1"
       inkscape:vp_y="0 : 999.99994 : 0"
       inkscape:vp_x="4.2094952 : -66.972241 : 1"
       sodipodi:type="inkscape:persp3d" />
  </defs>
  <sodipodi:namedview
     height="209mm"
     inkscape:window-maximized="1"
     inkscape:window-y="-8"
     inkscape:window-x="1912"
     inkscape:window-height="1017"
     inkscape:window-width="1920"
     showgrid="false"
     inkscape:document-rotation="0"
     inkscape:current-layer="layer1"
     inkscape:document-units="mm"
     inkscape:cy="-41.290224"
     inkscape:cx="-53.219115"
     inkscape:zoom="0.35355339"
     inkscape:pageshadow="2"
     inkscape:pageopacity="0.0"
     borderopacity="1.0"
     bordercolor="#666666"
     pagecolor="#ffffff"
     id="base" />
  <metadata
     id="metadata5">
    <rdf:RDF>
      <cc:Work
         rdf:about="">
        <dc:format>image/svg+xml</dc:format>
        <dc:type
           rdf:resource="http://purl.org/dc/dcmitype/StillImage" />
        <dc:title></dc:title>
      </cc:Work>
    </rdf:RDF>
  </metadata>
  <g
     id="layer1"
     inkscape:groupmode="layer"
     inkscape:label="Layer 1">
    <path
       d="m 272.00246,9.8457463 -6.81533,0.2829177 v 1.470175 c 0.96122,0.169622 1.62234,0.338107 1.98044,0.507726 0.37693,0.169624 0.66922,0.396814 0.87655,0.679514 0.22618,0.282713 0.39465,0.678386 0.50774,1.187252 0.13175,0.490038 0.20842,1.092477 0.22734,1.808671 0.0375,0.71619 0.0555,1.979763 0.0555,3.789106 v 23.661656 c 0,1.017744 -0.0383,1.847358 -0.11377,2.488165 -0.0562,0.621957 -0.1689,1.121004 -0.33848,1.497941 -0.1507,0.35809 -0.41371,0.670787 -0.79066,0.934654 -0.35812,0.26386 -1.01031,0.517857 -1.95264,0.762857 v 1.384281 h 11.22583 v -1.384281 c -0.96119,-0.24501 -1.66062,-0.528337 -2.09409,-0.848754 -0.41465,-0.33924 -0.69547,-0.820417 -0.84627,-1.442374 -0.1507,-0.640804 -0.22731,-1.771638 -0.22731,-3.392489 v -6.78499 h 1.58382 c 0.50892,0 0.91351,0.05614 1.21504,0.169246 0.30159,0.113072 0.58488,0.30197 0.84876,0.565839 0.28272,0.263855 0.74349,0.821599 1.38429,1.669719 l 3.36472,4.521636 c 0.84815,1.168531 1.43269,1.989208 1.7531,2.460385 0.32041,0.471177 0.52717,0.848974 0.62141,1.131674 0.11306,0.263867 0.16926,0.535737 0.16926,0.818434 0,0.376947 -0.12133,0.651357 -0.36628,0.820977 -0.22616,0.150767 -0.58353,0.254147 -1.0736,0.310697 v 1.384271 h 10.85454 v -1.384271 c -0.90468,-0.18846 -1.74322,-0.575197 -2.51595,-1.159454 -0.75391,-0.603107 -1.60141,-1.527181 -2.54377,-2.771085 l -8.14153,-10.62966 6.5021,-6.163613 c 1.03661,-0.980046 2.04365,-1.771379 3.02371,-2.374495 0.98005,-0.603113 1.90413,-0.98985 2.7711,-1.159472 v -1.384284 h -12.18575 v 1.384284 c 0.79156,0.113072 1.35825,0.331317 1.69752,0.65173 0.35809,0.320401 0.53803,0.763294 0.53803,1.328708 0,0.395802 -0.0765,0.791463 -0.22733,1.187254 -0.16976,0.471178 -0.47977,0.988116 -0.93213,1.55353 -0.43347,0.565425 -1.08567,1.253367 -1.95263,2.063806 -1.03659,0.961203 -1.83687,1.649148 -2.40228,2.063796 -0.56544,0.395787 -1.08235,0.679135 -1.55356,0.848756 -0.39578,0.131915 -0.9063,0.199576 -1.52826,0.199576 h -0.90433 V 9.8457463 Z m -94.51035,1.8667657 v 1.38428 c 0.86699,0.245013 1.47837,0.472189 1.83647,0.679513 0.35809,0.188461 0.64141,0.451403 0.84875,0.790662 0.22617,0.3204 0.38572,0.781167 0.47995,1.384283 0.0942,0.584267 0.14161,1.528736 0.14161,2.829197 v 24.452317 c 3e-5,1.394681 -0.0651,2.431075 -0.19698,3.109572 -0.11306,0.678507 -0.36709,1.206894 -0.76287,1.583841 -0.39579,0.358097 -1.1782,0.688667 -2.34673,0.990204 v 1.384281 h 11.93063 v -1.384281 c -0.86698,-0.245 -1.48087,-0.463237 -1.83897,-0.651717 -0.35809,-0.207327 -0.63891,-0.461327 -0.84625,-0.762874 -0.20736,-0.3204 -0.36939,-0.781157 -0.48247,-1.384274 -0.0942,-0.621954 -0.1416,-1.611121 -0.1416,-2.968102 v -9.61167 h 3.1096 c 0.92352,0 1.61147,0.05614 2.06379,0.169261 0.47121,0.09424 0.90514,0.283124 1.30093,0.56584 0.41463,0.263854 0.85754,0.733559 1.32873,1.412061 0.49002,0.678503 1.11283,1.735298 1.86675,3.167692 l 2.48817,4.721193 c 0.62196,1.187374 1.25376,2.353968 1.89454,3.503642 0.64084,1.149681 1.3173,2.224335 2.03352,3.223239 h 7.83333 v -1.384281 c -0.90467,-0.15077 -1.63092,-0.413707 -2.17748,-0.790654 -0.54657,-0.37694 -1.08391,-0.925737 -1.61164,-1.641931 -0.52769,-0.716187 -1.1595,-1.752581 -1.89453,-3.109582 l -2.54376,-4.635306 c -0.99892,-1.847022 -1.91403,-3.205037 -2.7433,-4.07202 -0.81044,-0.885813 -1.79067,-1.564821 -2.94033,-2.036014 v -0.224808 c 2.84591,-1.01776 4.97738,-2.431934 6.39094,-4.241273 1.43237,-1.809339 2.14714,-4.003388 2.14714,-6.585464 0,-3.373658 -1.09255,-5.862511 -3.27884,-7.464531 -2.18629,-1.602015 -5.48436,-2.402288 -9.8946,-2.402288 z m 12.74909,2.488166 c 2.11089,0 3.788,0.310169 5.03191,0.932128 1.24392,0.621956 2.16801,1.525619 2.77111,2.712989 0.62196,1.187384 0.93464,2.678133 0.93464,4.468618 0,1.715094 -0.26546,3.165042 -0.79319,4.352424 -0.50886,1.168526 -1.19681,2.083646 -2.06379,2.743305 -0.86696,0.659672 -1.80892,1.111503 -2.82667,1.356502 -1.01776,0.226154 -2.34642,0.338495 -3.98613,0.338495 h -3.19549 V 14.311827 c 1.05546,-0.07537 2.43135,-0.111173 4.12761,-0.111173 z m 34.88754,8.593698 c -1.24392,0 -2.46921,0.130187 -3.67543,0.394056 -1.20624,0.245012 -2.41364,0.595987 -3.61986,1.048322 -1.20622,0.433492 -2.71233,1.121435 -4.52167,2.063794 v 3.672912 h 3.70321 c 0.45233,-1.545487 1.11987,-2.703135 2.00571,-3.47587 0.90466,-0.772737 2.09419,-1.159473 3.56428,-1.159473 1.35701,0 2.44062,0.262937 3.25105,0.790661 0.81044,0.527726 1.40393,1.357342 1.78088,2.48818 0.37693,1.130839 0.56583,2.677747 0.56583,4.637866 v 1.83645 c -5.44687,0.245012 -9.53879,1.121863 -12.27163,2.629633 -2.71401,1.488938 -4.06949,3.608926 -4.06949,6.360611 0,1.319294 0.29229,2.488405 0.87654,3.506172 0.58426,0.998894 1.42281,1.781288 2.51596,2.346695 1.09313,0.546567 2.35415,0.818437 3.78658,0.818437 1.62085,0 3.14987,-0.34844 4.58227,-1.045774 1.45124,-0.697347 2.99562,-1.884351 4.63533,-3.561752 l 0.42439,0.11367 -0.14161,4.041696 h 7.74494 v -1.384281 c -0.82929,-0.22615 -1.43172,-0.444387 -1.80865,-0.651717 -0.35813,-0.207307 -0.63001,-0.452377 -0.81847,-0.735074 -0.18854,-0.30157 -0.33012,-0.697227 -0.42438,-1.187244 -0.0942,-0.490037 -0.15023,-1.015914 -0.16926,-1.581321 -0.0196,-0.584267 -0.0303,-1.573431 -0.0303,-2.968115 v -9.839012 c 0,-2.468986 -0.28082,-4.317129 -0.84622,-5.542198 -0.56543,-1.225072 -1.41545,-2.128734 -2.54631,-2.713004 -1.13081,-0.603113 -2.62796,-0.90432 -4.49385,-0.90432 z m 28.29955,0 c -2.48786,0 -4.68443,0.584552 -6.58801,1.753078 -1.90357,1.168542 -3.38284,2.836714 -4.43829,5.004142 -1.05543,2.148598 -1.58385,4.617042 -1.58385,7.406443 -2e-5,4.466774 0.94195,7.886096 2.82668,10.260831 1.88473,2.355898 4.60971,3.533952 8.17181,3.533952 0.96122,0 1.84701,-0.0944 2.65743,-0.28292 0.82929,-0.16962 1.65892,-0.441497 2.48819,-0.818434 0.84811,-0.39579 1.63945,-0.876967 2.3745,-1.442374 0.73503,-0.584267 1.58254,-1.404941 2.54374,-2.460385 l -1.61163,-1.864218 c -1.2062,1.281591 -2.37534,2.176315 -3.50617,2.685192 -1.11201,0.50887 -2.31687,0.762867 -3.61735,0.762867 -1.33813,0 -2.46003,-0.262937 -3.36471,-0.790664 -0.90466,-0.527717 -1.63091,-1.262874 -2.17746,-2.205228 -0.5466,-0.942367 -0.93331,-2.073198 -1.15948,-3.392502 -0.22617,-1.338131 -0.33848,-2.808485 -0.33848,-4.410502 0,-2.506688 0.29227,-4.626692 0.87653,-6.360645 0.60313,-1.733937 1.41232,-3.024335 2.43011,-3.872461 1.01774,-0.848125 2.18684,-1.273134 3.50616,-1.273134 0.92351,0 1.69695,0.141665 2.31893,0.424375 0.62194,0.282713 1.16823,0.781764 1.63942,1.497969 0.47119,0.697345 0.86683,1.657164 1.18725,2.882235 h 3.58955 v -5.908475 c -1.31932,-0.395789 -2.63652,-0.6766 -3.95583,-0.846224 -1.30046,-0.18846 -2.72359,-0.282918 -4.26904,-0.282918 z m -25.24555,14.615829 v 3.986118 c 0,0.942354 -0.29227,1.893231 -0.87655,2.854445 -0.58427,0.961204 -1.40492,1.752541 -2.46038,2.374485 -1.03659,0.621957 -2.1968,0.934637 -3.47841,0.934637 -0.90466,0 -1.68703,-0.11486 -2.3467,-0.34102 -0.65966,-0.245007 -1.20594,-0.676424 -1.63943,-1.298381 -0.43348,-0.621967 -0.64919,-1.471984 -0.64919,-2.546275 0,-1.978941 0.95087,-3.458222 2.85445,-4.438276 1.90358,-0.980042 4.77022,-1.48803 8.59621,-1.525733 z"
       style="font-style:normal;font-variant:normal;font-weight:normal;font-stretch:normal;font-size:11.8445px;line-height:1.25;font-family:'Cambria Math';-inkscape-font-specification:'Cambria Math, Normal';font-variant-ligatures:normal;font-variant-caps:normal;font-variant-numeric:normal;font-variant-east-asian:normal;fill:#ff6600;fill-opacity:1;stroke:none;stroke-width:1.44748"
       id="path872" />
    <path
       d="m 101.74037,12.359183 v 3.991179 h 7.95713 v 21.951539 c 0,1.279864 -0.0674,2.408178 -0.20209,3.384922 -0.11788,0.976734 -0.40418,1.801918 -0.85887,2.475525 -0.43785,0.656777 -1.11988,1.161994 -2.04612,1.515641 -0.90937,0.353637 -2.13874,0.530467 -3.68805,0.530467 -1.06095,0 -2.09665,-0.12632 -3.107062,-0.378917 -1.010427,-0.25259 -1.860879,-0.496767 -2.551333,-0.732547 h -0.277864 v 4.673203 c 0.909378,0.20208 2.037696,0.37049 3.384919,0.505207 1.34724,0.15157 2.42504,0.22734 3.23337,0.22734 3.38492,0 6.07942,-0.892534 8.08342,-2.677615 2.02086,-1.785071 3.03128,-4.327986 3.03128,-7.628685 V 12.359183 Z m 53.24953,1.28829 v 8.108679 h -3.20809 v 3.991193 h 3.20809 v 15.004831 c 0,3.418582 0.74942,5.902557 2.24822,7.451858 1.4988,1.549311 3.68805,2.323978 6.56775,2.323978 0.8252,0 1.75985,-0.0758 2.80393,-0.22735 1.06098,-0.151537 2.03773,-0.345217 2.93028,-0.580984 v -4.269046 h -0.25263 c -0.37048,0.151537 -0.97674,0.345217 -1.81878,0.580994 -0.84201,0.21892 -1.65036,0.32839 -2.42501,0.32839 -1.3304,0 -2.32398,-0.15153 -2.98076,-0.454687 -0.63995,-0.31997 -1.14515,-0.816767 -1.51564,-1.490371 -0.40419,-0.724127 -0.63995,-1.498794 -0.7073,-2.323968 -0.0674,-0.842014 -0.10107,-2.004018 -0.10107,-3.485969 V 25.747345 h 9.80116 v -3.991193 h -9.80116 v -8.108679 z m -19.19812,7.325598 c -4.10906,0 -7.42665,1.355674 -9.95272,4.066969 -2.50921,2.711307 -3.76383,6.374132 -3.76383,10.988407 0,4.664782 1.31356,8.268631 3.94067,10.811516 2.62709,2.526045 6.2815,3.789089 10.96314,3.789089 1.83559,0 3.58701,-0.22735 5.25423,-0.682037 1.66716,-0.454697 3.3007,-1.018844 4.90056,-1.692461 v -5.1784 h -0.2526 c -0.82518,0.740967 -2.21453,1.498781 -4.16803,2.273448 -1.93665,0.757804 -3.86489,1.136714 -5.7847,1.136724 -1.44826,0 -2.77867,-0.2021 -3.99119,-0.606267 -1.19566,-0.404157 -2.23136,-1.010414 -3.10705,-1.818741 -0.90938,-0.825174 -1.62512,-1.877708 -2.14716,-3.157572 -0.52206,-1.296701 -0.78308,-2.812355 -0.78308,-4.546917 h 20.78955 v -2.576582 c 0,-4.092227 -1.03571,-7.24983 -3.10708,-9.472759 -2.05451,-2.222942 -4.98476,-3.334417 -8.79071,-3.334417 z m -0.25261,3.915412 c 2.52607,0 4.40378,0.682034 5.63312,2.046116 1.24609,1.364067 1.8776,3.292317 1.89456,5.784689 h -16.16683 c 0.20208,-2.222929 1.05253,-4.083808 2.55132,-5.582604 1.51563,-1.498797 3.54493,-2.248201 6.08783,-2.248201 z"
       style="font-style:normal;font-variant:normal;font-weight:normal;font-stretch:normal;font-size:10.5833px;line-height:1.25;font-family:sans-serif;-inkscape-font-specification:'sans-serif, Normal';font-variant-ligatures:normal;font-variant-caps:normal;font-variant-numeric:normal;font-variant-east-asian:normal;fill:#000000;fill-opacity:1;stroke:none;stroke-width:1.29334"
       id="path881" />
    <path
       d="M 95.798716,55.479085 H 295.34374 v 5.542877 H 95.798716 Z"
       style="fill:#ff6600;stroke-width:10.4706;stroke-linecap:round;stroke-linejoin:round;stroke-opacity:0;paint-order:markers fill stroke"
       id="rect847" />
    <path
       d="m 113.44871,64.830531 -1.79351,0.0758 v 0.386487 c 0.25336,0.0447 0.42599,0.0892 0.52036,0.13387 0.0994,0.0447 0.17523,0.1048 0.22988,0.179357 0.0598,0.0745 0.10676,0.17909 0.13641,0.31323 0.0349,0.12916 0.0532,0.288637 0.0581,0.477427 0.01,0.18876 0.0152,0.520877 0.0152,0.997784 v 6.236834 c 0,0.26824 -0.0104,0.487867 -0.0303,0.656757 -0.0151,0.1639 -0.0437,0.29471 -0.0884,0.394097 -0.0397,0.0945 -0.11032,0.17547 -0.20967,0.245 -0.0944,0.0695 -0.26441,0.13761 -0.51281,0.202087 v 0.36627 h 2.95803 v -0.36627 c -0.25335,-0.0647 -0.43894,-0.137887 -0.5532,-0.222297 -0.1093,-0.0895 -0.18256,-0.21751 -0.2223,-0.381427 -0.0397,-0.1689 -0.0606,-0.466997 -0.0606,-0.894217 v -8.800779 z m 84.35302,0 -1.79603,0.0758 v 0.386487 c 0.25335,0.0447 0.42849,0.0892 0.52288,0.13387 0.0993,0.0447 0.17513,0.1048 0.22986,0.179357 0.0597,0.0745 0.10421,0.17909 0.1339,0.31323 0.0348,0.12916 0.0558,0.288637 0.0604,0.477427 0.01,0.18876 0.016,0.520877 0.016,0.997784 v 6.236834 c 0,0.26824 -0.01,0.487867 -0.0303,0.656757 -0.016,0.1639 -0.0435,0.29471 -0.0884,0.394097 -0.0398,0.0945 -0.11035,0.17547 -0.20973,0.245 -0.0942,0.0695 -0.26693,0.13761 -0.51532,0.202087 v 0.36627 h 2.96055 v -0.36627 c -0.25335,-0.0647 -0.43897,-0.137887 -0.55321,-0.222297 -0.10935,-0.0895 -0.18249,-0.21751 -0.22229,-0.381427 -0.0398,-0.1689 -0.0604,-0.466997 -0.0604,-0.894217 v -8.800779 z m -98.099895,0.373857 c -0.650771,0 -1.228692,0.11241 -1.735413,0.33597 -0.501754,0.223537 -0.886071,0.539997 -1.149356,0.952304 -0.258321,0.407367 -0.386492,0.888524 -0.386492,1.444911 0,0.382507 0.0811,0.735507 0.245039,1.058404 0.168881,0.322897 0.422533,0.623617 0.760344,0.901824 0.337797,0.2732 0.798005,0.555547 1.379224,0.843697 0.601098,0.298057 1.048245,0.556997 1.341349,0.780554 0.2931,0.22356 0.50489,0.464047 0.63405,0.717397 0.12916,0.253347 0.19196,0.564587 0.19196,0.937164 0,0.581227 -0.15688,1.023144 -0.46985,1.326164 -0.30799,0.303057 -0.75253,0.454707 -1.333761,0.454707 -0.422239,0 -0.767419,-0.0601 -1.035686,-0.17935 -0.268255,-0.12433 -0.485342,-0.312497 -0.654254,-0.565837 C 97.32009,73.95893 97.184185,73.61378 97.084817,73.176593 H 96.33963 v 2.043598 c 1.018396,0.26327 1.917906,0.39406 2.697845,0.39406 0.481878,0 0.923801,-0.0497 1.326185,-0.14911 0.40734,-0.1042 0.75512,-0.26902 1.04327,-0.492567 0.29308,-0.22853 0.52313,-0.521387 0.68709,-0.879087 0.16392,-0.362627 0.24502,-0.804564 0.24502,-1.326151 0,-0.466977 -0.0994,-0.874884 -0.29808,-1.222614 -0.19373,-0.352737 -0.46573,-0.663954 -0.81844,-0.937174 -0.34774,-0.273237 -0.83934,-0.568727 -1.475218,-0.886644 -0.526572,-0.25835 -0.924044,-0.493607 -1.19231,-0.702257 -0.268265,-0.20864 -0.467002,-0.433557 -0.596154,-0.676987 -0.124164,-0.243417 -0.186927,-0.541507 -0.186927,-0.894214 0,-0.332837 0.07329,-0.617887 0.222301,-0.856324 0.149037,-0.24341 0.35038,-0.42639 0.603723,-0.545637 0.25832,-0.11924 0.548585,-0.17936 0.871494,-0.17936 0.372575,0 0.675891,0.0497 0.909391,0.14904 0.2335,0.0944 0.43745,0.264307 0.6113,0.507737 0.17387,0.243417 0.31771,0.583377 0.43197,1.020534 h 0.7376 v -2.010728 c -0.54148,-0.13911 -0.99384,-0.23057 -1.35649,-0.2703 -0.35768,-0.0398 -0.72382,-0.0581 -1.101369,-0.0581 z m 32.280645,0.24502 v 1.444901 h 1.37164 v -1.444901 z m 132.19169,0 v 1.444901 h 1.37166 v -1.444901 z m 20.32728,1.081154 c -0.0547,0.452077 -0.10707,0.797244 -0.15647,1.035684 -0.0498,0.233477 -0.11763,0.429597 -0.20716,0.588557 -0.0846,0.154077 -0.20476,0.279557 -0.35869,0.378927 -0.15391,0.0994 -0.35534,0.16989 -0.60373,0.20967 v 0.381427 h 1.10387 v 4.135146 c 0,0.809757 0.1568,1.405931 0.46985,1.788451 0.31297,0.377537 0.78892,0.565847 1.42978,0.565847 0.3378,0 0.66208,-0.0784 0.97505,-0.23242 0.31793,-0.1539 0.65518,-0.402407 1.0079,-0.745177 l -0.33598,-0.401637 c -0.1689,0.15407 -0.34144,0.27425 -0.5153,0.35871 -0.17384,0.0795 -0.35954,0.118767 -0.55826,0.118767 -0.2186,0 -0.39645,-0.034 -0.53551,-0.10364 -0.13918,-0.0694 -0.26459,-0.184577 -0.37387,-0.343537 -0.10948,-0.1639 -0.1827,-0.388787 -0.22231,-0.671947 -0.0398,-0.288137 -0.0604,-0.672514 -0.0604,-1.154401 v -3.316702 h 2.40735 V 68.37204 h -2.40749 v -1.841458 z m -177.34013,1.712661 c -0.63587,0 -1.20327,0.141077 -1.70005,0.419327 -0.49675,0.273217 -0.889,0.691654 -1.17714,1.257991 -0.28317,0.566297 -0.42439,1.259244 -0.42439,2.078928 0,1.192254 0.26939,2.094388 0.81088,2.705395 0.54645,0.606087 1.33615,0.909387 2.36945,0.909387 0.68555,0 1.28165,-0.13847 1.7834,-0.4168 0.50175,-0.283147 0.88877,-0.709324 1.16199,-1.275651 0.27322,-0.566327 0.40923,-1.261884 0.40923,-2.086518 0,-1.157474 -0.27453,-2.043928 -0.82098,-2.659935 -0.54645,-0.620977 -1.3493,-0.932124 -2.41239,-0.932124 z m 20.70618,0 c -0.65574,0 -1.23367,0.154227 -1.7354,0.462277 -0.50173,0.307997 -0.89137,0.747304 -1.16958,1.318591 -0.27821,0.566337 -0.41681,1.217414 -0.41681,1.952638 0,1.177354 0.24843,2.079491 0.7452,2.705435 0.49678,0.620947 1.21332,0.932087 2.15222,0.932087 0.25336,0 0.48861,-0.026 0.70225,-0.0758 0.21858,-0.0445 0.43567,-0.11535 0.65424,-0.21473 0.22356,-0.10421 0.43273,-0.232407 0.62647,-0.381437 0.19375,-0.15407 0.41607,-0.368477 0.66941,-0.646677 l -0.42437,-0.492577 c -0.31796,0.337807 -0.6265,0.573167 -0.92456,0.707297 -0.2931,0.134037 -0.60955,0.202087 -0.95233,0.202087 -0.3527,0 -0.64819,-0.0707 -0.88664,-0.209667 -0.23845,-0.13904 -0.42935,-0.33259 -0.57341,-0.580987 -0.14413,-0.24839 -0.24607,-0.546487 -0.30566,-0.894227 -0.0596,-0.352717 -0.0909,-0.739724 -0.0909,-1.162001 0,-0.660687 0.0784,-1.220254 0.23239,-1.677301 0.15904,-0.457007 0.37336,-0.796977 0.64163,-1.020524 0.26825,-0.22356 0.57427,-0.33596 0.92202,-0.33596 0.2434,0 0.44735,0.0391 0.61129,0.11363 0.16392,0.0745 0.30776,0.20527 0.43196,0.394057 0.12425,0.18379 0.2288,0.43743 0.31324,0.760337 h 0.94727 V 68.5412 c -0.34774,-0.10435 -0.69551,-0.17758 -1.04325,-0.2223 -0.34279,-0.0497 -0.71929,-0.0758 -1.12664,-0.0758 z m 10.94799,0 c -0.63589,0 -1.20327,0.141077 -1.70005,0.419327 -0.49679,0.273217 -0.88904,0.691654 -1.17714,1.257991 -0.28318,0.566297 -0.4244,1.259244 -0.4244,2.078928 0,1.192254 0.27191,2.094388 0.81341,2.705395 0.54644,0.606087 1.33615,0.909387 2.36943,0.909387 0.68558,0 1.27914,-0.13847 1.78089,-0.4168 0.50176,-0.283147 0.88878,-0.709324 1.16199,-1.275651 0.27322,-0.566327 0.40925,-1.261884 0.40925,-2.086518 0,-1.157474 -0.27201,-2.043928 -0.81846,-2.659935 -0.54648,-0.620977 -1.35183,-0.932124 -2.41492,-0.932124 z m 16.55585,0 c -0.64085,0 -1.20571,0.154227 -1.69752,0.462277 -0.4918,0.307997 -0.87098,0.744694 -1.13926,1.311011 -0.26329,0.566337 -0.39657,1.220024 -0.39657,1.960218 0,1.197224 0.26144,2.104578 0.78306,2.720565 0.52161,0.611027 1.29305,0.916957 2.3164,0.916957 0.38253,0 0.73291,-0.0523 1.05084,-0.15664 0.31796,-0.10935 0.60823,-0.25834 0.8715,-0.447117 0.26826,-0.18879 0.56366,-0.450247 0.88159,-0.783087 L 157.5867,73.74239 c -0.3229,0.342767 -0.64971,0.591217 -0.97758,0.745227 -0.32291,0.149097 -0.68644,0.224797 -1.09379,0.224797 -0.48187,0 -0.87664,-0.11234 -1.17968,-0.335967 -0.29806,-0.22852 -0.51253,-0.542267 -0.64669,-0.939694 -0.12904,-0.40239 -0.19449,-0.896587 -0.19449,-1.482801 v -0.1339 h 4.69596 c -0.016,-0.675597 -0.0829,-1.222114 -0.20208,-1.639381 -0.11434,-0.422277 -0.27899,-0.770047 -0.49258,-1.043284 -0.20866,-0.27819 -0.48849,-0.495277 -0.84118,-0.654227 -0.35274,-0.15906 -0.78152,-0.239997 -1.28325,-0.239997 z m 7.05784,0 c -0.56138,0 -1.05037,0.081 -1.46765,0.239987 -0.41729,0.15904 -0.73889,0.389107 -0.96243,0.692137 -0.21857,0.298047 -0.32587,0.651067 -0.32587,1.058414 0,0.332827 0.0758,0.620487 0.22988,0.863914 0.15888,0.24341 0.37599,0.455197 0.6492,0.634047 0.27322,0.17881 0.63414,0.361897 1.08619,0.550667 0.52661,0.223547 0.89529,0.403917 1.10392,0.538067 0.20863,0.12904 0.36289,0.272987 0.46226,0.431937 0.0992,0.15904 0.1491,0.365557 0.1491,0.618877 0,0.223557 -0.0393,0.409227 -0.11876,0.558257 -0.0795,0.14911 -0.18668,0.266757 -0.3208,0.356177 -0.13405,0.0845 -0.28843,0.14717 -0.46227,0.18694 -0.1689,0.0348 -0.34407,0.0531 -0.52289,0.0531 -0.46204,0 -0.82294,-0.10193 -1.08623,-0.30566 -0.26327,-0.208657 -0.46202,-0.540757 -0.59613,-0.997794 h -0.73005 v 1.556041 c 0.37259,0.0994 0.75437,0.18041 1.14685,0.23998 0.39244,0.0647 0.79774,0.0961 1.21502,0.0961 0.39743,0 0.76095,-0.0365 1.09378,-0.11106 0.33783,-0.0744 0.6281,-0.19737 0.8715,-0.36627 0.24342,-0.168897 0.43426,-0.388487 0.56836,-0.656764 0.13404,-0.26826 0.19959,-0.597777 0.19959,-0.990214 0,-0.3378 -0.0784,-0.628067 -0.23745,-0.871507 -0.15408,-0.243417 -0.371,-0.457827 -0.64922,-0.641597 -0.27323,-0.183817 -0.66288,-0.385167 -1.16958,-0.603744 -0.50172,-0.21362 -0.8521,-0.38364 -1.05084,-0.512767 -0.19873,-0.12919 -0.34515,-0.26778 -0.43954,-0.41681 -0.0944,-0.149107 -0.14161,-0.339857 -0.14161,-0.568357 0,-0.322917 0.11763,-0.574024 0.35111,-0.757824 0.23847,-0.18879 0.55491,-0.28544 0.95234,-0.28544 0.27322,0 0.50589,0.0365 0.69466,0.10606 0.18881,0.0695 0.35619,0.1899 0.50522,0.36377 0.14909,0.168907 0.27974,0.404177 0.38903,0.702234 h 0.71487 V 68.48343 c -0.46202,-0.0946 -0.84642,-0.15728 -1.1544,-0.18692 -0.30304,-0.0348 -0.61943,-0.0531 -0.94729,-0.0531 z m 10.32153,0 c -0.64085,0 -1.20823,0.154227 -1.70008,0.462277 -0.49177,0.307997 -0.87097,0.744694 -1.13924,1.311011 -0.26326,0.566337 -0.39657,1.220024 -0.39657,1.960218 0,1.197224 0.26146,2.104578 0.78305,2.720565 0.52162,0.611027 1.29557,0.916957 2.31891,0.916957 0.38254,0 0.73042,-0.0523 1.04835,-0.15664 0.31794,-0.10935 0.61076,-0.25834 0.87403,-0.447117 0.26826,-0.18879 0.56115,-0.450247 0.87907,-0.783087 l -0.4547,-0.485017 c -0.3229,0.342767 -0.64973,0.591217 -0.97758,0.745227 -0.32291,0.149097 -0.68643,0.224797 -1.09378,0.224797 -0.48188,0 -0.87415,-0.11234 -1.17715,-0.335967 -0.29808,-0.22852 -0.5151,-0.542267 -0.64921,-0.939694 -0.12905,-0.40239 -0.1946,-0.896587 -0.1946,-1.482801 v -0.1339 h 4.69596 c -0.016,-0.675597 -0.0829,-1.222114 -0.20217,-1.639381 -0.1142,-0.422277 -0.27896,-0.770047 -0.49259,-1.043284 -0.20864,-0.27819 -0.48846,-0.495277 -0.84119,-0.654227 -0.35271,-0.15906 -0.77897,-0.239997 -1.2807,-0.239997 z m 19.43304,0 c -0.32788,0 -0.65208,0.0366 -0.97004,0.106137 -0.31792,0.0647 -0.63438,0.15615 -0.95229,0.27533 -0.31796,0.11435 -0.71543,0.294707 -1.19233,0.543107 v 0.970004 h 0.97505 c 0.11906,-0.407357 0.29698,-0.713277 0.5305,-0.916964 0.23844,-0.20367 0.54968,-0.30565 0.93716,-0.30565 0.35768,0 0.64525,0.0681 0.85886,0.20716 0.21364,0.13918 0.37051,0.358707 0.46986,0.656757 0.0994,0.298077 0.14895,0.705974 0.14895,1.222601 v 0.484997 c -1.43568,0.0647 -2.51559,0.29473 -3.23591,0.692167 -0.71536,0.392447 -1.07359,0.951994 -1.07359,1.677281 0,0.347737 0.0782,0.653747 0.2324,0.922034 0.1539,0.26328 0.37374,0.469857 0.66184,0.618867 0.28811,0.14414 0.62278,0.21725 1.00032,0.21725 0.42722,0 0.8299,-0.0915 1.20746,-0.27535 0.3825,-0.1838 0.78788,-0.497577 1.2201,-0.939694 l 0.11377,0.0303 -0.038,1.066004 h 2.04106 v -0.36628 c -0.21859,-0.0597 -0.37807,-0.117197 -0.47744,-0.171807 -0.0945,-0.0547 -0.16495,-0.11734 -0.21472,-0.192 -0.0498,-0.0795 -0.0889,-0.184087 -0.11363,-0.313237 -0.0248,-0.12918 -0.0381,-0.27028 -0.0431,-0.419307 -0.003,-0.15407 -0.009,-0.41294 -0.009,-0.780547 v -2.594265 c 0,-0.650747 -0.0757,-1.137134 -0.22484,-1.460061 -0.14895,-0.32289 -0.37135,-0.560857 -0.66937,-0.714877 -0.2981,-0.15905 -0.69295,-0.239967 -1.18475,-0.239967 z m 24.29319,0 c -0.32787,0 -0.65208,0.0366 -0.97001,0.106137 -0.31795,0.0647 -0.63441,0.15615 -0.95234,0.27533 -0.31791,0.11435 -0.71538,0.294707 -1.19228,0.543107 v 0.970004 h 0.97507 c 0.11905,-0.407357 0.29442,-0.713277 0.52794,-0.916964 0.23845,-0.20367 0.55219,-0.30565 0.9397,-0.30565 0.35766,0 0.64271,0.0681 0.85631,0.20716 0.21365,0.13918 0.37051,0.358707 0.46987,0.656757 0.0994,0.298077 0.14895,0.705974 0.14895,1.222601 v 0.484997 c -1.43572,0.0647 -2.51305,0.29473 -3.23335,0.692167 -0.71539,0.392447 -1.07359,0.951994 -1.07359,1.677281 0,0.347737 0.0784,0.653747 0.23239,0.922034 0.15392,0.26328 0.37371,0.469857 0.66183,0.618867 0.28811,0.14414 0.62025,0.21725 0.99779,0.21725 0.42723,0 0.82994,-0.0915 1.20747,-0.27535 0.38249,-0.1838 0.79043,-0.497577 1.2226,-0.939694 l 0.11106,0.0303 -0.0354,1.066004 h 2.04105 v -0.36628 c -0.21856,-0.0597 -0.37806,-0.117197 -0.47744,-0.171807 -0.0944,-0.0547 -0.16752,-0.11734 -0.21722,-0.192 -0.0498,-0.0795 -0.0864,-0.184087 -0.11106,-0.313237 -0.0247,-0.12918 -0.0407,-0.27028 -0.0455,-0.419307 -0.004,-0.15407 -0.004,-0.41294 -0.004,-0.780547 v -2.594265 c 0,-0.650747 -0.0757,-1.137134 -0.22479,-1.460061 -0.14894,-0.32289 -0.37138,-0.560857 -0.66941,-0.714877 -0.29807,-0.15905 -0.69293,-0.239967 -1.18472,-0.239967 z m 7.45697,0 c -0.65576,0 -1.23369,0.154227 -1.73541,0.462277 -0.50175,0.307997 -0.8914,0.747304 -1.16957,1.318591 -0.27822,0.566337 -0.41683,1.217414 -0.41683,1.952638 0,1.177354 0.24842,2.079491 0.74521,2.705435 0.49675,0.620947 1.2133,0.932087 2.15222,0.932087 0.25334,0 0.48862,-0.026 0.70221,-0.0758 0.21861,-0.0445 0.4357,-0.11535 0.65428,-0.21473 0.22356,-0.10421 0.43273,-0.232407 0.62647,-0.381437 0.19373,-0.15407 0.41603,-0.368477 0.6694,-0.646677 l -0.42438,-0.492577 c -0.31795,0.337807 -0.62396,0.573167 -0.92202,0.707297 -0.29308,0.134037 -0.61207,0.202087 -0.95485,0.202087 -0.35271,0 -0.64819,-0.0707 -0.88666,-0.209667 -0.23842,-0.13904 -0.42934,-0.33259 -0.5734,-0.580987 -0.14414,-0.24839 -0.24606,-0.546487 -0.30566,-0.894227 -0.0597,-0.352717 -0.0911,-0.739724 -0.0911,-1.162001 0,-0.660687 0.0782,-1.220254 0.23242,-1.677301 0.15888,-0.457007 0.37335,-0.796977 0.64161,-1.020524 0.26828,-0.22356 0.57426,-0.33596 0.92202,-0.33596 0.24341,0 0.44735,0.0391 0.61131,0.11363 0.1639,0.0745 0.30778,0.20527 0.43196,0.394057 0.12405,0.18379 0.2288,0.43743 0.31323,0.760337 h 0.94728 V 68.5412 c -0.34774,-0.10435 -0.69554,-0.17758 -1.04328,-0.2223 -0.34277,-0.0497 -0.71925,-0.0758 -1.1266,-0.0758 z m 6.64101,0 c -0.64083,0 -1.20823,0.154227 -1.70002,0.462277 -0.49181,0.307997 -0.87101,0.744694 -1.13927,1.311011 -0.26327,0.566337 -0.39407,1.220024 -0.39407,1.960218 0,1.197224 0.25895,2.104578 0.78054,2.720565 0.52162,0.611027 1.29561,0.916957 2.31897,0.916957 0.38249,0 0.7329,-0.0523 1.05081,-0.15664 0.31796,-0.10935 0.60822,-0.25834 0.87153,-0.447117 0.26824,-0.18879 0.56112,-0.450247 0.87905,-0.783087 l -0.4547,-0.485017 c -0.32289,0.342767 -0.6497,0.591217 -0.9776,0.745227 -0.32289,0.149097 -0.68641,0.224797 -1.09376,0.224797 -0.48188,0 -0.87412,-0.11234 -1.17715,-0.335967 -0.29808,-0.22852 -0.51507,-0.542267 -0.6492,-0.939694 -0.12905,-0.40239 -0.1946,-0.896587 -0.1946,-1.482801 v -0.1339 h 4.69597 c -0.016,-0.675597 -0.0829,-1.222114 -0.20219,-1.639381 -0.1142,-0.422277 -0.27642,-0.770047 -0.49006,-1.043284 -0.20866,-0.27819 -0.49099,-0.495277 -0.84371,-0.654227 -0.35268,-0.15906 -0.77896,-0.239997 -1.28071,-0.239997 z m 16.06582,0 c -0.32788,0 -0.65208,0.0366 -0.97003,0.106137 -0.31791,0.0647 -0.63438,0.15615 -0.95234,0.27533 -0.31791,0.11435 -0.71539,0.294707 -1.19228,0.543107 v 0.970004 h 0.97505 c 0.11905,-0.407357 0.29699,-0.713277 0.53048,-0.916964 0.23847,-0.20367 0.54969,-0.30565 0.93718,-0.30565 0.35765,0 0.64271,0.0681 0.85633,0.20716 0.21364,0.13918 0.37046,0.358707 0.46987,0.656757 0.0994,0.298077 0.14894,0.705974 0.14894,1.222601 v 0.484997 c -1.43568,0.0647 -2.51304,0.29473 -3.23337,0.692167 -0.71535,0.392447 -1.07358,0.951994 -1.07358,1.677281 0,0.347737 0.0784,0.653747 0.2324,0.922034 0.15391,0.26328 0.37369,0.469857 0.66183,0.618867 0.28813,0.14414 0.62279,0.21725 1.00033,0.21725 0.42724,0 0.82738,-0.0915 1.20494,-0.27535 0.38251,-0.1838 0.7904,-0.497577 1.22261,-0.939694 l 0.11377,0.0303 -0.038,1.066004 h 2.04104 v -0.36628 c -0.21857,-0.0597 -0.37805,-0.117197 -0.47742,-0.171807 -0.0944,-0.0547 -0.16493,-0.11734 -0.21471,-0.192 -0.0498,-0.0795 -0.0889,-0.184087 -0.11363,-0.313237 -0.0247,-0.12918 -0.0381,-0.27028 -0.0431,-0.419307 -0.004,-0.15407 -0.009,-0.41294 -0.009,-0.780547 v -2.594265 c 0,-0.650747 -0.0756,-1.137134 -0.22484,-1.460061 -0.14895,-0.32289 -0.37136,-0.560857 -0.6694,-0.714877 -0.29807,-0.15905 -0.69292,-0.239967 -1.1847,-0.239967 z m 24.29067,0 c -0.64084,0 -1.20571,0.154227 -1.69753,0.462277 -0.4918,0.307997 -0.87098,0.744694 -1.13924,1.311011 -0.26329,0.566337 -0.3966,1.220024 -0.3966,1.960218 0,1.197224 0.26148,2.104578 0.78308,2.720565 0.52161,0.611027 1.29307,0.916957 2.31642,0.916957 0.38251,0 0.7329,-0.0523 1.05083,-0.15664 0.31793,-0.10935 0.60822,-0.25834 0.87149,-0.447117 0.26827,-0.18879 0.56115,-0.450247 0.87907,-0.783087 l -0.45216,-0.485017 c -0.3229,0.342767 -0.64973,0.591217 -0.9776,0.745227 -0.3229,0.149097 -0.68895,0.224797 -1.0963,0.224797 -0.48188,0 -0.87411,-0.11234 -1.17714,-0.335967 -0.29808,-0.22852 -0.51256,-0.542267 -0.64669,-0.939694 -0.12904,-0.40239 -0.19438,-0.896587 -0.19438,-1.482801 v -0.1339 h 4.6934 c -0.016,-0.675597 -0.0802,-1.222114 -0.19957,-1.639381 -0.11448,-0.422277 -0.279,-0.770047 -0.49261,-1.043284 -0.20863,-0.27819 -0.48846,-0.495277 -0.84117,-0.654227 -0.35269,-0.15906 -0.78148,-0.239997 -1.28323,-0.239997 z m 21.09016,0 c -0.63589,0 -1.2033,0.141077 -1.70006,0.419327 -0.49679,0.273217 -0.88906,0.691654 -1.17715,1.257991 -0.28317,0.566297 -0.42436,1.259244 -0.42436,2.078928 0,1.192254 0.26937,2.094388 0.81084,2.705395 0.54646,0.606087 1.33617,0.909387 2.36946,0.909387 0.68557,0 1.27914,-0.13847 1.7809,-0.4168 0.50173,-0.283147 0.89129,-0.709324 1.16451,-1.275651 0.27323,-0.566327 0.40922,-1.261884 0.40922,-2.086518 0,-1.157474 -0.27455,-2.043928 -0.82098,-2.659935 -0.54646,-0.620977 -1.3493,-0.932124 -2.41238,-0.932124 z m -144.03394,0.008 c -0.25829,0 -0.50409,0.0444 -0.73762,0.13387 -0.22851,0.0845 -0.45604,0.20731 -0.68453,0.36627 -0.22357,0.158884 -0.51906,0.425654 -0.88666,0.798241 l -0.10606,-0.0303 0.0834,-1.215021 h -0.45469 l -1.74299,0.0681 v 0.39408 c 0.2235,0.0398 0.39355,0.0895 0.5128,0.149104 0.12419,0.0547 0.21572,0.14089 0.27534,0.26018 0.0598,0.11434 0.0964,0.268537 0.10606,0.462287 0.01,0.19373 0.0128,0.449987 0.0128,0.767904 v 3.248502 c 0,0.34778 -0.016,0.604007 -0.0505,0.767927 -0.0298,0.16391 -0.0742,0.284277 -0.1339,0.363747 -0.0547,0.0795 -0.12504,0.14218 -0.20964,0.18696 -0.0795,0.0445 -0.21548,0.0969 -0.4092,0.156617 v 0.36629 h 2.9201 v -0.36629 c -0.25335,-0.0647 -0.43642,-0.137887 -0.55067,-0.222267 -0.10935,-0.0895 -0.18509,-0.21752 -0.22485,-0.381437 -0.0395,-0.1689 -0.0579,-0.467017 -0.0579,-0.894227 v -2.778662 c 0,-0.23846 0.047,-0.45025 0.1416,-0.634047 0.0944,-0.18379 0.24603,-0.36948 0.45469,-0.558247 0.20867,-0.18877 0.39954,-0.31955 0.57344,-0.394057 0.17388,-0.0795 0.35692,-0.1212 0.55067,-0.1212 0.19377,0 0.35065,0.0236 0.46985,0.0681 0.11933,0.0398 0.22383,0.0972 0.31323,0.171747 0.0944,0.0695 0.17286,0.15584 0.23745,0.26019 0.0695,0.0994 0.12705,0.240577 0.17181,0.424377 0.0497,0.17884 0.0861,0.408977 0.10607,0.692147 0.0198,0.283157 0.0277,0.599517 0.0277,0.947254 v 1.952658 c 0,0.33779 -0.016,0.591437 -0.0505,0.760347 -0.0298,0.1639 -0.0742,0.284247 -0.1339,0.363737 -0.0547,0.0795 -0.12519,0.14217 -0.20969,0.18695 -0.0845,0.0445 -0.22306,0.0969 -0.41677,0.156637 v 0.36626 h 2.93528 v -0.36626 c -0.2335,-0.0647 -0.39822,-0.124757 -0.49257,-0.179377 -0.0945,-0.0597 -0.16512,-0.13033 -0.21474,-0.21472 -0.0497,-0.0845 -0.0836,-0.204667 -0.10364,-0.358697 -0.0198,-0.15391 -0.0303,-0.402407 -0.0303,-0.745177 v -2.808972 c 0,-0.41232 -0.0287,-0.752257 -0.0834,-1.020504 -0.0497,-0.26826 -0.12576,-0.495787 -0.22988,-0.684587 -0.10421,-0.19377 -0.23769,-0.355834 -0.40166,-0.484994 -0.15888,-0.12919 -0.34716,-0.22332 -0.56077,-0.28292 -0.20863,-0.0646 -0.44664,-0.0984 -0.71488,-0.0984 z m 33.35421,0 c -0.25829,0 -0.50411,0.0444 -0.7376,0.13387 -0.22853,0.0845 -0.45606,0.20731 -0.68456,0.36627 -0.22354,0.158884 -0.52156,0.425654 -0.88919,0.798241 l -0.10363,-0.0303 0.0834,-1.215021 h -0.45471 l -1.7455,0.0681 v 0.39408 c 0.22355,0.0398 0.39607,0.0895 0.51533,0.149104 0.12404,0.0547 0.21578,0.14089 0.27532,0.26018 0.0597,0.11434 0.0939,0.268537 0.10363,0.462287 0.01,0.19373 0.016,0.449987 0.016,0.767904 v 3.248502 c 0,0.34778 -0.016,0.604007 -0.0507,0.767927 -0.0298,0.16391 -0.0767,0.284277 -0.13646,0.363747 -0.0547,0.0795 -0.12248,0.14218 -0.20715,0.18696 -0.0796,0.0445 -0.21556,0.0969 -0.40922,0.156617 v 0.36629 h 2.92012 v -0.36629 c -0.25336,-0.0647 -0.43645,-0.137887 -0.55069,-0.222267 -0.10934,-0.0895 -0.18507,-0.21752 -0.2248,-0.381437 -0.0398,-0.1689 -0.0581,-0.467017 -0.0581,-0.894227 v -2.778662 c 0,-0.23846 0.047,-0.45025 0.14161,-0.634047 0.0942,-0.18379 0.24606,-0.36948 0.4547,-0.558247 0.20866,-0.18877 0.39955,-0.31955 0.57342,-0.394057 0.17384,-0.0795 0.35695,-0.1212 0.55069,-0.1212 0.19372,0 0.35059,0.0236 0.46982,0.0681 0.11905,0.0398 0.22381,0.0972 0.31325,0.171747 0.0942,0.0695 0.17275,0.15584 0.23745,0.26019 0.0695,0.0994 0.12719,0.240577 0.17165,0.424377 0.0498,0.17884 0.0838,0.408977 0.1035,0.692147 0.0194,0.283157 0.0303,0.599517 0.0303,0.947254 v 1.952658 c 0,0.33779 -0.0173,0.591437 -0.053,0.760347 -0.0298,0.1639 -0.0744,0.284247 -0.1339,0.363737 -0.0547,0.0795 -0.12291,0.14217 -0.20714,0.18695 -0.0847,0.0445 -0.22309,0.0969 -0.41682,0.156637 v 0.36626 h 2.93529 v -0.36626 c -0.23349,-0.0647 -0.3982,-0.124757 -0.49257,-0.179377 -0.0944,-0.0597 -0.16495,-0.13033 -0.21471,-0.21472 -0.0498,-0.0845 -0.0864,-0.204667 -0.10606,-0.358697 -0.0196,-0.15391 -0.0278,-0.402407 -0.0278,-0.745177 v -2.808972 c 0,-0.41232 -0.0287,-0.752257 -0.0834,-1.020504 -0.0498,-0.26826 -0.12576,-0.495787 -0.22989,-0.684587 -0.10421,-0.19377 -0.24019,-0.355834 -0.40416,-0.484994 -0.15888,-0.12919 -0.34462,-0.22332 -0.55828,-0.28292 -0.20864,-0.0646 -0.44659,-0.0984 -0.71486,-0.0984 z m 23.4495,0 c -0.16391,0 -0.32601,0.0207 -0.48498,0.0606 -0.15391,0.0397 -0.31882,0.10773 -0.49764,0.20208 -0.17884,0.0895 -0.36454,0.20973 -0.55826,0.363764 -0.18878,0.1491 -0.43455,0.37389 -0.73259,0.671937 l -0.10364,-0.0303 0.0834,-1.215021 h -0.45468 l -1.74299,0.0681 v 0.39408 c 0.22355,0.0398 0.39353,0.0895 0.51277,0.149104 0.12405,0.0547 0.2158,0.14089 0.27535,0.26017 0.0597,0.11435 0.0939,0.268537 0.10364,0.462297 0.01,0.19372 0.016,0.449987 0.016,0.767904 v 3.248502 c 0,0.34777 -0.0144,0.603997 -0.0431,0.767917 -0.0298,0.16392 -0.0744,0.284267 -0.1339,0.363757 -0.0597,0.0795 -0.13276,0.14218 -0.21724,0.18696 -0.0797,0.0445 -0.21277,0.0969 -0.40163,0.156617 v 0.36628 h 2.92012 v -0.36628 c -0.18378,-0.0497 -0.32243,-0.0968 -0.4168,-0.141607 -0.0895,-0.0497 -0.15999,-0.0994 -0.20973,-0.1491 -0.0498,-0.0547 -0.0915,-0.12262 -0.12633,-0.20713 -0.0297,-0.0845 -0.0507,-0.202097 -0.0658,-0.351117 -0.016,-0.1491 -0.0227,-0.366037 -0.0227,-0.649197 v -2.793822 c 0,-0.21857 0.0472,-0.42252 0.14161,-0.611307 0.0944,-0.18877 0.233,-0.36923 0.4168,-0.543097 0.18877,-0.17384 0.37184,-0.30717 0.55069,-0.396567 0.1788,-0.0945 0.36972,-0.14147 0.57342,-0.14147 0.14414,0 0.27475,0.016 0.38899,0.0455 0.11449,0.0248 0.21364,0.0641 0.29812,0.118617 0.0845,0.0547 0.16561,0.13561 0.245,0.23999 0.0847,0.10435 0.1523,0.24032 0.20217,0.409207 0.0547,0.16889 0.0941,0.39123 0.11876,0.669417 0.0247,0.278207 0.038,0.639037 0.038,1.081154 v 1.952628 c 0,0.33782 -0.0173,0.591447 -0.053,0.760327 -0.0298,0.16392 -0.0741,0.284287 -0.1339,0.363757 -0.0547,0.0795 -0.12505,0.14218 -0.20972,0.18697 -0.0845,0.0445 -0.22309,0.0971 -0.41683,0.156637 v 0.36627 h 2.92771 v -0.36627 c -0.22356,-0.0597 -0.38051,-0.117197 -0.47488,-0.171827 -0.0944,-0.0597 -0.16753,-0.12776 -0.21724,-0.20714 -0.045,-0.0794 -0.0789,-0.191897 -0.10363,-0.335977 -0.0248,-0.14413 -0.038,-0.405517 -0.038,-0.783067 v -2.720565 c 0,-0.258297 0.0444,-0.480627 0.1339,-0.669404 0.0894,-0.19374 0.23323,-0.38463 0.43195,-0.573407 0.20367,-0.1888 0.38938,-0.32217 0.55826,-0.401637 0.17386,-0.0795 0.36207,-0.12119 0.56081,-0.12119 0.18877,0 0.34046,0.021 0.4547,0.0607 0.1142,0.0398 0.21363,0.0946 0.29806,0.164197 0.0846,0.0695 0.15776,0.1507 0.22231,0.24503 0.0695,0.0944 0.12719,0.225087 0.17165,0.389017 0.0498,0.16392 0.0837,0.383597 0.1035,0.661827 0.0247,0.273207 0.038,0.620987 0.038,1.043254 v 1.952648 c 0,0.3378 -0.0173,0.591427 -0.053,0.760327 -0.0298,0.16392 -0.0741,0.284267 -0.1339,0.363767 -0.0547,0.0795 -0.12248,0.14217 -0.20715,0.18694 -0.0845,0.0445 -0.22558,0.0969 -0.41932,0.156637 v 0.36628 h 2.93023 v -0.36628 c -0.22354,-0.0597 -0.38302,-0.117197 -0.47741,-0.171807 -0.0944,-0.0597 -0.16753,-0.12776 -0.21723,-0.20716 -0.0447,-0.0794 -0.0789,-0.191907 -0.10364,-0.335977 -0.0247,-0.14413 -0.038,-0.405517 -0.038,-0.783067 v -2.809002 c 0,-0.511667 -0.0391,-0.919577 -0.11877,-1.222604 -0.0745,-0.303017 -0.1948,-0.554037 -0.36374,-0.752757 -0.16391,-0.203684 -0.36789,-0.352754 -0.61131,-0.447144 -0.23848,-0.0994 -0.52351,-0.14909 -0.85637,-0.14909 -0.27816,0 -0.53965,0.0497 -0.78307,0.14909 -0.23845,0.0945 -0.4738,0.23293 -0.70728,0.411764 -0.22853,0.17884 -0.52924,0.45606 -0.90184,0.833607 -0.11905,-0.471947 -0.33618,-0.822327 -0.64918,-1.050861 -0.31295,-0.22851 -0.71824,-0.34352 -1.21504,-0.34352 z m 34.37476,0 c -0.25832,0 -0.50414,0.0444 -0.7376,0.13387 -0.22855,0.0845 -0.45608,0.20731 -0.68459,0.36627 -0.22354,0.158884 -0.51902,0.425654 -0.88663,0.798241 l -0.10606,-0.0303 0.0834,-1.215021 h -0.45474 l -1.74298,0.0681 v 0.39408 c 0.22355,0.0398 0.39355,0.0895 0.51276,0.149104 0.12405,0.0547 0.2158,0.14089 0.27535,0.26018 0.0597,0.11434 0.0962,0.268537 0.10606,0.462287 0.01,0.19373 0.0144,0.449987 0.0144,0.767904 v 3.248502 c 0,0.34778 -0.016,0.604007 -0.0507,0.767927 -0.0298,0.16391 -0.0741,0.284277 -0.1339,0.363747 -0.0547,0.0795 -0.12505,0.14218 -0.20973,0.18696 -0.0797,0.0445 -0.21557,0.0969 -0.40919,0.156617 v 0.36629 h 2.92011 v -0.36629 c -0.25335,-0.0647 -0.43643,-0.137887 -0.55068,-0.222267 -0.10935,-0.0895 -0.18508,-0.21752 -0.22482,-0.381437 -0.0398,-0.1689 -0.0581,-0.467017 -0.0581,-0.894227 v -2.778662 c 0,-0.23846 0.0472,-0.45025 0.14161,-0.634047 0.0942,-0.18379 0.24601,-0.36948 0.4547,-0.558247 0.20864,-0.18877 0.39956,-0.31955 0.5734,-0.394057 0.17385,-0.0795 0.35694,-0.1212 0.55071,-0.1212 0.19373,0 0.35058,0.0236 0.46982,0.0681 0.11905,0.0398 0.22382,0.0972 0.31325,0.171747 0.0942,0.0695 0.17275,0.15584 0.23745,0.26019 0.0695,0.0994 0.12719,0.240577 0.17165,0.424377 0.0498,0.17884 0.0837,0.408977 0.1035,0.692147 0.0196,0.283157 0.0303,0.599517 0.0303,0.947254 v 1.952658 c 0,0.33779 -0.016,0.591437 -0.0507,0.760347 -0.0298,0.1639 -0.0741,0.284247 -0.13375,0.363737 -0.0548,0.0795 -0.12505,0.14217 -0.20973,0.18695 -0.0847,0.0445 -0.22307,0.0969 -0.41683,0.156637 v 0.36626 h 2.93531 v -0.36626 c -0.2335,-0.0647 -0.39819,-0.124757 -0.49261,-0.179377 -0.0943,-0.0597 -0.16493,-0.13033 -0.2147,-0.21472 -0.0497,-0.0845 -0.0835,-0.204667 -0.10364,-0.358697 -0.0196,-0.15391 -0.0303,-0.402407 -0.0303,-0.745177 v -2.808972 c 0,-0.41232 -0.0288,-0.752257 -0.0834,-1.020504 -0.0498,-0.26826 -0.12562,-0.495787 -0.22987,-0.684587 -0.10421,-0.19377 -0.23769,-0.355834 -0.40164,-0.484994 -0.15888,-0.12919 -0.3472,-0.22332 -0.56079,-0.28292 -0.20866,-0.0646 -0.44661,-0.0984 -0.71489,-0.0984 z m 15.93949,0 c -0.1639,0 -0.32605,0.0207 -0.48502,0.0606 -0.15391,0.0397 -0.3213,0.10773 -0.50016,0.20208 -0.17881,0.0895 -0.36451,0.20973 -0.55825,0.363764 -0.18875,0.1491 -0.43199,0.37389 -0.73002,0.671937 l -0.10364,-0.0303 0.0808,-1.215021 h -0.45468 l -1.74298,0.0681 v 0.39408 c 0.22357,0.0398 0.39611,0.0895 0.51531,0.149104 0.12405,0.0547 0.21579,0.14089 0.27533,0.26017 0.0597,0.11435 0.0939,0.268537 0.10364,0.462297 0.01,0.19372 0.016,0.449987 0.016,0.767904 v 3.248502 c 0,0.34777 -0.016,0.603997 -0.0455,0.767917 -0.0298,0.16392 -0.0744,0.284267 -0.1339,0.363757 -0.0597,0.0795 -0.13019,0.14218 -0.21472,0.18696 -0.0797,0.0445 -0.21535,0.0969 -0.40416,0.156617 v 0.36628 h 2.92265 v -0.36628 c -0.18379,-0.0497 -0.3224,-0.0968 -0.41678,-0.141607 -0.0895,-0.0497 -0.16,-0.0994 -0.20975,-0.1491 -0.0498,-0.0547 -0.0915,-0.12262 -0.12634,-0.20713 -0.0297,-0.0845 -0.0532,-0.202097 -0.0681,-0.351117 -0.016,-0.1491 -0.0228,-0.366037 -0.0228,-0.649197 v -2.793822 c 0,-0.21857 0.047,-0.42252 0.14133,-0.611307 0.0943,-0.18877 0.2355,-0.36923 0.41931,-0.543097 0.18876,-0.17384 0.37183,-0.30717 0.55068,-0.396567 0.17883,-0.0945 0.36973,-0.14147 0.5734,-0.14147 0.14413,0 0.27225,0.016 0.38651,0.0455 0.11448,0.0248 0.21361,0.0641 0.29807,0.118617 0.0845,0.0547 0.16804,0.13561 0.24758,0.23999 0.0845,0.10435 0.14974,0.24032 0.19955,0.409207 0.0547,0.16889 0.0965,0.39123 0.12133,0.669417 0.0248,0.278207 0.0356,0.639037 0.0356,1.081154 v 1.952628 c 0,0.33782 -0.016,0.591447 -0.0507,0.760327 -0.0298,0.16392 -0.0741,0.284287 -0.1339,0.363757 -0.0547,0.0795 -0.12519,0.14218 -0.20975,0.18697 -0.0845,0.0445 -0.22307,0.0971 -0.4168,0.156637 v 0.36627 h 2.92772 v -0.36627 c -0.22356,-0.0597 -0.38306,-0.117197 -0.47743,-0.171827 -0.0945,-0.0597 -0.16493,-0.12776 -0.21471,-0.20714 -0.0448,-0.0794 -0.0812,-0.191897 -0.10606,-0.335977 -0.0248,-0.14413 -0.0354,-0.405517 -0.0354,-0.783067 v -2.720565 c 0,-0.258297 0.0445,-0.480627 0.1339,-0.669404 0.0894,-0.19374 0.23324,-0.38463 0.43197,-0.573407 0.20368,-0.1888 0.38934,-0.32217 0.55825,-0.401637 0.17384,-0.0795 0.35952,-0.12119 0.55825,-0.12119 0.18879,0 0.34042,0.021 0.45472,0.0607 0.11448,0.0398 0.21361,0.0946 0.29806,0.164197 0.0846,0.0695 0.16032,0.1507 0.22482,0.24503 0.0695,0.0944 0.12719,0.225087 0.17165,0.389017 0.0497,0.16392 0.0835,0.383597 0.10364,0.661827 0.0248,0.273207 0.038,0.620987 0.038,1.043254 v 1.952648 c 0,0.3378 -0.0173,0.591427 -0.053,0.760327 -0.0298,0.16392 -0.0744,0.284267 -0.1339,0.363767 -0.0547,0.0795 -0.12505,0.14217 -0.20973,0.18694 -0.0847,0.0445 -0.22307,0.0969 -0.41681,0.156637 v 0.36628 h 2.92772 v -0.36628 c -0.22354,-0.0597 -0.38054,-0.117197 -0.4749,-0.171807 -0.0943,-0.0597 -0.16753,-0.12776 -0.21726,-0.20716 -0.0448,-0.0794 -0.0787,-0.191907 -0.10364,-0.335977 -0.0247,-0.14413 -0.038,-0.405517 -0.038,-0.783067 v -2.809002 c 0,-0.511667 -0.0391,-0.919577 -0.11877,-1.222604 -0.0745,-0.303017 -0.19741,-0.554037 -0.36625,-0.752757 -0.1639,-0.203684 -0.36788,-0.352754 -0.61134,-0.447144 -0.23845,-0.0994 -0.52346,-0.14909 -0.85631,-0.14909 -0.27819,0 -0.53965,0.0497 -0.78308,0.14909 -0.23845,0.0945 -0.4738,0.23293 -0.70729,0.411764 -0.22854,0.17884 -0.52923,0.45606 -0.90182,0.833607 -0.11905,-0.471947 -0.3337,-0.822327 -0.64668,-1.050861 -0.31296,-0.22851 -0.71826,-0.34352 -1.21503,-0.34352 z m 24.41949,0 c -0.25831,0 -0.50411,0.0444 -0.7376,0.13387 -0.22853,0.0845 -0.4586,0.20731 -0.68709,0.36627 -0.22356,0.158884 -0.51905,0.425654 -0.88664,0.798241 l -0.10364,-0.0303 0.0808,-1.215021 h -0.45469 l -1.743,0.0681 v 0.39408 c 0.22353,0.0398 0.39609,0.0895 0.51533,0.149104 0.12404,0.0547 0.21579,0.14089 0.27535,0.26018 0.0597,0.11434 0.0939,0.268537 0.10363,0.462287 0.01,0.19373 0.016,0.449987 0.016,0.767904 v 3.248502 c 0,0.34778 -0.0173,0.604007 -0.053,0.767927 -0.0298,0.16391 -0.0741,0.284277 -0.1339,0.363747 -0.0547,0.0795 -0.12291,0.14218 -0.20716,0.18696 -0.0797,0.0445 -0.21801,0.0969 -0.41175,0.156617 v 0.36629 h 2.92268 v -0.36629 c -0.25337,-0.0647 -0.43897,-0.137887 -0.55323,-0.222267 -0.10935,-0.0895 -0.18251,-0.21752 -0.22228,-0.381437 -0.0398,-0.1689 -0.0604,-0.467017 -0.0604,-0.894227 v -2.778662 c 0,-0.23846 0.0471,-0.45025 0.14147,-0.634047 0.0942,-0.18379 0.24604,-0.36948 0.4547,-0.558247 0.20864,-0.18877 0.40208,-0.31955 0.57593,-0.394057 0.17384,-0.0795 0.35696,-0.1212 0.55069,-0.1212 0.19374,0 0.35062,0.0236 0.46986,0.0681 0.11905,0.0398 0.22379,0.0972 0.31323,0.171747 0.0944,0.0695 0.17275,0.15584 0.23745,0.26019 0.0695,0.0994 0.12719,0.240577 0.17166,0.424377 0.0498,0.17884 0.0836,0.408977 0.10364,0.692147 0.0195,0.283157 0.0303,0.599517 0.0303,0.947254 v 1.952658 c 0,0.33779 -0.0173,0.591437 -0.053,0.760347 -0.0298,0.1639 -0.0744,0.284247 -0.1339,0.363737 -0.0547,0.0795 -0.12276,0.14217 -0.20714,0.18695 -0.0845,0.0445 -0.22558,0.0969 -0.41932,0.156637 v 0.36626 h 2.93781 v -0.36626 c -0.23349,-0.0647 -0.3982,-0.124757 -0.49256,-0.179377 -0.0945,-0.0597 -0.16753,-0.13033 -0.21725,-0.21472 -0.0498,-0.0845 -0.0835,-0.204667 -0.10364,-0.358697 -0.0196,-0.15391 -0.0303,-0.402407 -0.0303,-0.745177 v -2.808972 c 0,-0.41232 -0.0261,-0.752257 -0.0808,-1.020504 -0.0498,-0.26826 -0.12804,-0.495787 -0.23238,-0.684587 -0.10421,-0.19377 -0.23772,-0.355834 -0.40168,-0.484994 -0.15888,-0.12919 -0.34463,-0.22332 -0.55825,-0.28292 -0.20866,-0.0646 -0.44662,-0.0984 -0.71489,-0.0984 z m -146.67112,0.0531 -1.7354,0.0681 v 0.39408 c 0.22352,0.0398 0.39354,0.0895 0.51279,0.149104 0.12425,0.0547 0.21573,0.14089 0.27534,0.26019 0.0598,0.11434 0.0964,0.268527 0.10614,0.462277 0.01,0.19374 0.0128,0.449987 0.0128,0.767934 v 3.248472 c 0,0.34777 -0.016,0.603997 -0.0505,0.767917 -0.0298,0.16392 -0.0742,0.284277 -0.13387,0.363757 -0.0547,0.0795 -0.12521,0.14218 -0.20969,0.18696 -0.0794,0.0445 -0.21547,0.0969 -0.40922,0.156637 v 0.36626 h 2.92014 v -0.36626 c -0.25336,-0.0647 -0.43643,-0.137897 -0.55069,-0.222307 -0.10935,-0.0895 -0.18256,-0.21752 -0.22229,-0.381437 -0.0396,-0.1689 -0.0606,-0.466987 -0.0606,-0.894227 v -5.327417 z m 132.19174,0 -1.73544,0.0681 v 0.39408 c 0.22352,0.0398 0.39357,0.0895 0.51277,0.149104 0.12405,0.0547 0.21579,0.14089 0.27538,0.26019 0.0597,0.11434 0.0962,0.268527 0.10606,0.462277 0.01,0.19374 0.016,0.449987 0.016,0.767934 v 3.248472 c 0,0.34777 -0.0173,0.603997 -0.053,0.767917 -0.0298,0.16392 -0.0744,0.284277 -0.1339,0.363757 -0.0547,0.0795 -0.12505,0.14218 -0.20971,0.18696 -0.0797,0.0445 -0.21561,0.0969 -0.40924,0.156637 v 0.36626 h 2.92013 v -0.36626 c -0.25334,-0.0647 -0.43643,-0.137897 -0.55067,-0.222307 -0.10935,-0.0895 -0.18249,-0.21752 -0.2223,-0.381437 -0.0398,-0.1689 -0.0604,-0.466987 -0.0604,-0.894227 v -5.327417 z m -149.1745,0.0681 v 0.36377 c 0.308,0.0795 0.50673,0.165794 0.59615,0.260164 0.0945,0.0895 0.15728,0.21488 0.18693,0.373857 0.0348,0.15407 0.0505,0.43904 0.0505,0.856337 v 2.816562 c 0,0.645797 0.0732,1.147844 0.21724,1.505524 0.14407,0.352717 0.36369,0.619394 0.65679,0.798234 0.2931,0.17884 0.66446,0.26777 1.11652,0.26777 0.37754,0 0.75151,-0.10464 1.1241,-0.31324 0.37754,-0.208627 0.7724,-0.535547 1.18472,-0.982634 l 0.11366,0.0277 -0.0455,1.222614 h 0.45469 l 1.70761,-0.0732 v -0.388997 c -0.26826,-0.0547 -0.45647,-0.11221 -0.56077,-0.17185 -0.10437,-0.0647 -0.18022,-0.14557 -0.22988,-0.24501 -0.0496,-0.0994 -0.081,-0.232757 -0.096,-0.401637 -0.0151,-0.1689 -0.0227,-0.446037 -0.0227,-0.828574 v -5.08745 h -2.12441 v 0.36376 c 0.19374,0.0497 0.33232,0.0966 0.41681,0.141464 0.0894,0.0447 0.15737,0.0944 0.20208,0.1491 0.0497,0.0547 0.0915,0.12776 0.1263,0.21724 0.0347,0.0845 0.0583,0.196937 0.0733,0.341017 0.0151,0.14397 0.0227,0.358447 0.0227,0.641607 v 2.793862 c 0,0.24342 -0.0471,0.45782 -0.14148,0.641617 -0.0894,0.18379 -0.24107,0.36948 -0.45469,0.558247 -0.21363,0.18381 -0.40713,0.31449 -0.581,0.389037 -0.17384,0.0747 -0.35431,0.11106 -0.5431,0.11106 -0.28812,0 -0.51556,-0.0523 -0.67951,-0.156637 -0.16392,-0.10421 -0.28949,-0.23248 -0.37892,-0.3865 -0.0894,-0.154067 -0.15737,-0.384047 -0.20208,-0.687084 -0.0447,-0.30303 -0.0657,-0.744937 -0.0657,-1.326174 v -3.791626 z m -8.7402,0.459764 c 0.35767,0 0.67412,0.11491 0.95233,0.34354 0.2782,0.223537 0.49781,0.576527 0.65678,1.058404 0.16395,0.481867 0.24502,1.088494 0.24502,1.818748 0,0.39245 -0.0314,0.769047 -0.096,1.131674 -0.0646,0.357687 -0.1718,0.674077 -0.32082,0.947284 -0.14405,0.27321 -0.33235,0.490297 -0.56584,0.654247 -0.23349,0.15888 -0.51591,0.23996 -0.84875,0.23996 -0.60607,0 -1.0741,-0.27451 -1.40198,-0.820947 -0.32291,-0.551427 -0.485,-1.338511 -0.485,-2.361865 0,-0.963724 0.15949,-1.706361 0.47743,-2.227968 0.3229,-0.521617 0.78571,-0.783077 1.38681,-0.783077 z m 31.65416,0 c 0.35768,0 0.67668,0.11491 0.95487,0.34354 0.27819,0.223537 0.49527,0.576527 0.65425,1.058404 0.1639,0.481867 0.24755,1.088494 0.24755,1.818748 0,0.39245 -0.034,0.769047 -0.0986,1.131674 -0.0646,0.357687 -0.17182,0.674077 -0.32081,0.947284 -0.14413,0.27321 -0.33235,0.490297 -0.56583,0.654247 -0.2335,0.15888 -0.51592,0.23996 -0.84875,0.23996 -0.60607,0 -1.07412,-0.27451 -1.402,-0.820947 -0.32291,-0.551427 -0.48246,-1.338511 -0.48246,-2.361865 0,-0.963724 0.15696,-1.706361 0.47488,-2.227968 0.32294,-0.521617 0.78573,-0.783077 1.38683,-0.783077 z m 16.51293,0 c 0.33778,0 0.60979,0.0941 0.81843,0.27784 0.20869,0.17884 0.36554,0.437797 0.46986,0.780564 0.10435,0.33782 0.17243,0.777027 0.20208,1.313534 h -3.25611 c 0.0547,-0.760047 0.2325,-1.345704 0.53554,-1.753071 0.30798,-0.412317 0.7185,-0.618867 1.2302,-0.618867 z m 17.37683,0 c 0.33778,0 0.6123,0.0941 0.82096,0.27784 0.20865,0.17884 0.36301,0.437797 0.46732,0.780564 0.10435,0.33782 0.17255,0.777027 0.20219,1.313534 h -3.25612 c 0.0547,-0.760047 0.23248,-1.345704 0.53552,-1.753071 0.308,-0.412317 0.7185,-0.618867 1.2302,-0.618867 z m 57.82423,0 c 0.33778,0 0.61231,0.0941 0.82097,0.27784 0.20866,0.17884 0.36554,0.437797 0.46985,0.780564 0.10435,0.33782 0.16994,0.777027 0.19957,1.313534 h -3.2561 c 0.0547,-0.760047 0.23502,-1.345704 0.53807,-1.753071 0.30799,-0.412317 0.71598,-0.618867 1.22766,-0.618867 z m 40.359,0 c 0.33779,0 0.60978,0.0941 0.81845,0.27784 0.20866,0.17884 0.36553,0.437797 0.46983,0.780564 0.10435,0.33782 0.17256,0.777027 0.20218,1.313534 h -3.25609 c 0.0547,-0.760047 0.23247,-1.345704 0.53551,-1.753071 0.30803,-0.412317 0.71852,-0.618867 1.23022,-0.618867 z m 21.1331,0 c 0.35764,0 0.67409,0.11491 0.95232,0.34354 0.27821,0.223537 0.4978,0.576527 0.65678,1.058404 0.16389,0.481867 0.24503,1.088494 0.24503,1.818748 -10e-6,0.39245 -0.0314,0.769047 -0.0961,1.131674 -0.0647,0.357687 -0.17181,0.674077 -0.32079,0.947284 -0.14413,0.27321 -0.33236,0.490297 -0.56584,0.654247 -0.2335,0.15888 -0.5159,0.23996 -0.84876,0.23996 -0.60605,0 -1.07409,-0.27451 -1.40196,-0.820947 -0.32292,-0.551427 -0.48501,-1.338511 -0.48501,-2.361865 0,-0.963724 0.15968,-1.706361 0.47743,-2.227968 0.32288,-0.521617 0.78571,-0.783077 1.38681,-0.783077 z m -99.00168,3.266172 v 1.048324 c 0,0.24838 -0.0784,0.499417 -0.23241,0.752757 -0.15391,0.253337 -0.37099,0.462517 -0.64921,0.626457 -0.27321,0.163887 -0.57663,0.247567 -0.91446,0.247567 -0.23843,0 -0.44499,-0.0314 -0.61885,-0.0911 -0.17385,-0.0647 -0.31771,-0.179617 -0.43196,-0.343547 -0.11448,-0.16389 -0.17165,-0.386227 -0.17165,-0.669397 0,-0.521607 0.25102,-0.911244 0.75279,-1.169564 0.50173,-0.258497 1.25742,-0.391867 2.26589,-0.401637 z m 24.29066,0 v 1.048324 c 0,0.24838 -0.0758,0.499417 -0.22985,0.752757 -0.15391,0.253337 -0.37105,0.462517 -0.64923,0.626457 -0.27322,0.163887 -0.57915,0.247567 -0.91695,0.247567 -0.23848,0 -0.44503,-0.0314 -0.61888,-0.0911 -0.17384,-0.0647 -0.31773,-0.179617 -0.43197,-0.343547 -0.1142,-0.16389 -0.17166,-0.386227 -0.17166,-0.669397 0,-0.521607 0.25103,-0.911244 0.75277,-1.169564 0.50175,-0.258497 1.25743,-0.391867 2.2659,-0.401637 z m 30.16378,0 v 1.048324 c 0,0.24838 -0.0758,0.499417 -0.22986,0.752757 -0.15391,0.253337 -0.37101,0.462517 -0.64921,0.626457 -0.27322,0.163887 -0.57914,0.247567 -0.91694,0.247567 -0.23848,0 -0.44252,-0.0314 -0.61638,-0.0911 -0.17382,-0.0647 -0.3177,-0.179617 -0.43197,-0.343547 -0.1142,-0.16389 -0.17166,-0.386227 -0.17166,-0.669397 0,-0.521607 0.25104,-0.911244 0.75276,-1.169564 0.50177,-0.258497 1.25493,-0.391867 2.26337,-0.401637 z"
       style="font-style:normal;font-variant:normal;font-weight:normal;font-stretch:normal;font-size:3.12197px;line-height:1.25;font-family:'Cambria Math';-inkscape-font-specification:'Cambria Math';fill:#000000;fill-opacity:1;stroke:none;stroke-width:1.43071"
       id="path889" />
    <g
       style="font-style:normal;font-weight:normal;font-size:10.7236px;line-height:1.25;font-family:sans-serif;fill:#000000;fill-opacity:1;stroke:none;stroke-width:0.268091"
       id="text873"
       transform="matrix(0,4.8882414,4.8882414,0,-121.29887,-303.42502)"
       aria-label="J">
      <path
         id="path942"
         style="fill:#000000;stroke-width:0.268091"
         d="m 77.511975,39.09426 q 0,1.026282 -0.628336,1.581312 -0.6231,0.55503 -1.675563,0.55503 -0.251334,0 -0.670225,-0.04712 -0.41889,-0.04189 -0.701641,-0.104722 v -0.96869 h 0.0576 q 0.214681,0.07331 0.528849,0.151848 0.314168,0.07854 0.644045,0.07854 0.481724,0 0.764475,-0.109959 0.287988,-0.109959 0.424127,-0.314168 0.141376,-0.209445 0.178029,-0.513141 0.04189,-0.303696 0.04189,-0.701642 V 34.151349 H 74.825843 V 33.32404 h 2.686136 z" />
    </g>
    <g
       style="font-style:normal;font-weight:normal;font-size:10.7236px;line-height:1.25;font-family:sans-serif;fill:#000000;fill-opacity:1;stroke:none;stroke-width:0.268091"
       id="text873-4"
       transform="matrix(0,4.8882414,-4.8882414,0,-121.29887,-303.42502)"
       aria-label="J">
      <path
         id="path945"
         style="fill:#000000;stroke-width:0.268091"
         d="m 77.511441,-27.55869 q 0,1.026282 -0.628336,1.581312 -0.6231,0.55503 -1.675563,0.55503 -0.251334,0 -0.670225,-0.04713 -0.41889,-0.04189 -0.701642,-0.104723 v -0.968684 h 0.0576 q 0.214681,0.07331 0.528849,0.151848 0.314168,0.07854 0.644045,0.07854 0.481724,0 0.764475,-0.109959 0.287987,-0.109959 0.424127,-0.314168 0.141376,-0.209446 0.178028,-0.513141 0.04189,-0.303696 0.04189,-0.701642 v -4.5502 h -1.649382 v -0.827309 h 2.686136 z" />
    </g>
    <path
       d="m 38.230374,62.385836 h 6.552373 v 13.074195 h -6.552373 z"
       style="fill:#000000;fill-opacity:1;stroke-width:13.0318;stroke-linecap:round;stroke-linejoin:round;stroke-opacity:0;paint-order:markers fill stroke"
       id="rect929" />
    <g
       transform="matrix(5.7547132,0,0,5.7547132,-158.05483,-307.33544)"
       aria-label="R"
       id="text877"
       style="font-style:normal;font-variant:normal;font-weight:normal;font-stretch:normal;font-size:11.7722px;line-height:1.25;font-family:'Cambria Math';-inkscape-font-specification:'Cambria Math';fill:#ff6600;fill-opacity:1;stroke:none;stroke-width:0.294306">
      <path
         d="m 36.467363,60.000088 v 1.954369 q 0,0.413866 0.02874,0.603555 0.03449,0.18394 0.09772,0.281659 0.06323,0.09197 0.172444,0.1552 0.109215,0.05748 0.373629,0.132207 v 0.281659 h -2.425717 v -0.281659 q 0.356385,-0.09197 0.477096,-0.201185 0.120711,-0.114963 0.1552,-0.321896 0.04024,-0.206933 0.04024,-0.632296 v -4.972145 q 0,-0.396622 -0.02874,-0.574814 -0.02874,-0.183941 -0.09772,-0.281659 -0.06323,-0.103467 -0.172444,-0.160948 -0.109215,-0.06323 -0.37363,-0.137956 V 55.56252 h 2.845332 q 1.345066,0 2.01185,0.488592 0.666785,0.488593 0.666785,1.517511 0,0.787495 -0.436859,1.339317 -0.431111,0.551822 -1.299081,0.862222 v 0.04599 q 0.350637,0.143704 0.597807,0.413866 0.252919,0.264415 0.55757,0.827733 l 0.517333,0.942696 q 0.224178,0.413866 0.385126,0.632296 0.160948,0.218429 0.327644,0.333392 0.166697,0.114963 0.442607,0.160948 v 0.281659 h -1.592236 q -0.218429,-0.304651 -0.413866,-0.655288 -0.195437,-0.350637 -0.385126,-0.71277 l -0.505836,-0.95994 q -0.229926,-0.436859 -0.379378,-0.643792 -0.143703,-0.206934 -0.270163,-0.287408 -0.120711,-0.08622 -0.264414,-0.114963 -0.137956,-0.03449 -0.419615,-0.03449 z m 0,-3.908739 v 3.414398 h 0.649541 q 0.500088,0 0.810488,-0.06898 0.3104,-0.07473 0.574814,-0.27591 0.264415,-0.201186 0.419615,-0.55757 0.160948,-0.362134 0.160948,-0.885215 0,-0.546073 -0.189689,-0.908207 -0.18394,-0.362133 -0.563318,-0.551821 -0.379377,-0.189689 -1.02317,-0.189689 -0.517333,0 -0.839229,0.02299 z"
         style="font-style:normal;font-variant:normal;font-weight:normal;font-stretch:normal;font-family:'Cambria Math';-inkscape-font-specification:'Cambria Math';fill:#ff6600;stroke-width:0.294306"
         id="path949" />
    </g>
    <g
       aria-label="R"
       transform="matrix(-5.7547132,0,0,5.7547132,-158.05483,-307.33544)"
       id="text877-1"
       style="font-style:normal;font-variant:normal;font-weight:normal;font-stretch:normal;font-size:11.7722px;line-height:1.25;font-family:'Cambria Math';-inkscape-font-specification:'Cambria Math';fill:#ff6600;fill-opacity:1;stroke:none;stroke-width:0.294307">
      <path
         d="m -32.969477,59.999241 v 1.954369 q 0,0.413866 0.02874,0.603555 0.03449,0.183941 0.09772,0.281659 0.06323,0.09197 0.172445,0.1552 0.109215,0.05748 0.373629,0.132207 v 0.281659 h -2.425717 v -0.281659 q 0.356385,-0.09197 0.477096,-0.201185 0.120711,-0.114963 0.1552,-0.321896 0.04024,-0.206933 0.04024,-0.632296 v -4.972145 q 0,-0.396622 -0.02874,-0.574814 -0.02874,-0.183941 -0.09772,-0.281659 -0.06323,-0.103467 -0.172444,-0.160948 -0.109215,-0.06323 -0.37363,-0.137956 v -0.281659 h 2.845332 q 1.345066,0 2.01185,0.488593 0.666785,0.488592 0.666785,1.51751 0,0.787495 -0.436859,1.339317 -0.431111,0.551822 -1.299081,0.862222 v 0.04599 q 0.350637,0.143704 0.597807,0.413866 0.252919,0.264415 0.55757,0.827733 l 0.517333,0.942696 q 0.224178,0.413866 0.385126,0.632296 0.160948,0.218429 0.327644,0.333392 0.166696,0.114963 0.442607,0.160948 v 0.281659 h -1.592236 q -0.218429,-0.304651 -0.413866,-0.655288 -0.195437,-0.350637 -0.385126,-0.71277 l -0.505836,-0.95994 q -0.229926,-0.436859 -0.379378,-0.643792 -0.143703,-0.206934 -0.270163,-0.287408 -0.120711,-0.08622 -0.264414,-0.114962 -0.137956,-0.03449 -0.419615,-0.03449 z m 0,-3.908738 V 59.5049 h 0.649541 q 0.500088,0 0.810488,-0.06898 0.3104,-0.07473 0.574814,-0.275911 0.264415,-0.201185 0.419615,-0.55757 0.160948,-0.362133 0.160948,-0.885215 0,-0.546073 -0.189689,-0.908206 -0.18394,-0.362133 -0.563318,-0.551822 -0.379377,-0.189689 -1.02317,-0.189689 -0.517333,0 -0.839229,0.02299 z"
         style="font-style:normal;font-variant:normal;font-weight:normal;font-stretch:normal;font-family:'Cambria Math';-inkscape-font-specification:'Cambria Math';fill:#ff6600;stroke-width:0.294307"
         id="path952" />
    </g>
    <path
       d="m 40.953886,55.976142 h 2.069786 v 1.546381 h -2.069786 z"
       style="fill:#ff6600;fill-opacity:1;stroke-width:12.3266;stroke-linecap:round;stroke-linejoin:round;stroke-opacity:0;paint-order:markers fill stroke"
       id="rect931" />
    <path
       d="m 40.656538,12.451261 h 2.069787 v 1.546393 h -2.069787 z"
       style="fill:#ff6600;fill-opacity:1;stroke-width:12.3266;stroke-linecap:round;stroke-linejoin:round;stroke-opacity:0;paint-order:markers fill stroke"
       id="rect931-0" />
  </g>
</svg>
